<svg width="18" height="17" viewBox="0 0 18 17" fill="none" xmlns="http://www.w3.org/2000/svg">
<path d="M17.5 8.5C17.5 13.1944 13.6944 17 9 17C4.30558 17 0.5 13.1944 0.5 8.5C0.5 3.80558 4.30558 0 9 0C13.6944 0 17.5 3.80558 17.5 8.5Z" fill="#D0D0D0"/>
<path d="M11.5 8.5C11.5 9.88071 10.3807 11 9 11C7.61929 11 6.5 9.88071 6.5 8.5C6.5 7.11929 7.61929 6 9 6C10.3807 6 11.5 7.11929 11.5 8.5Z" fill="#A3A3A3"/>
<path fill-rule="evenodd" clip-rule="evenodd" d="M9 15.6C12.9212 15.6 16.1 12.4212 16.1 8.5C16.1 4.57878 12.9212 1.4 9 1.4C5.07878 1.4 1.9 4.57878 1.9 8.5C1.9 12.4212 5.07878 15.6 9 15.6ZM9 17C13.6944 17 17.5 13.1944 17.5 8.5C17.5 3.80558 13.6944 0 9 0C4.30558 0 0.5 3.80558 0.5 8.5C0.5 13.1944 4.30558 17 9 17Z" fill="#DBDBDB"/>
<path fill-rule="evenodd" clip-rule="evenodd" d="M9 10.4C10.0493 10.4 10.9 9.54934 10.9 8.5C10.9 7.45066 10.0493 6.6 9 6.6C7.95066 6.6 7.1 7.45066 7.1 8.5C7.1 9.54934 7.95066 10.4 9 10.4ZM9 11C10.3807 11 11.5 9.88071 11.5 8.5C11.5 7.11929 10.3807 6 9 6C7.61929 6 6.5 7.11929 6.5 8.5C6.5 9.88071 7.61929 11 9 11Z" fill="#E4E4E4"/>
</svg>
